<svg width="100" height="100" viewBox="0 0 100 100" fill="none" xmlns="http://www.w3.org/2000/svg">
<g clip-path="url(#clip0_2456_19112)">
<rect width="100" height="100" rx="50" fill="#BDBDD4"/>
<path d="M24.1305 47.3242C24.1305 32.7236 36.0181 20.8359 50.6351 20.8359C65.2521 20.8359 77.1233 32.7236 77.1233 47.3242C77.1233 61.9247 65.2357 73.8124 50.6351 73.8124C36.0345 73.8124 24.1305 61.9412 24.1305 47.3242ZM90.2277 105.414C89.7508 105.957 89.0932 106.253 88.3697 106.253H12.9005C12.1771 106.253 11.5194 105.957 11.0426 105.414C10.5657 104.888 10.352 104.214 10.4342 103.507C12.0455 90.1065 20.4639 78.2024 32.5324 72.1682C37.613 75.8841 43.861 78.0709 50.6351 78.0709C57.4093 78.0709 63.6573 75.8676 68.7379 72.1682C80.7899 78.2024 89.2247 90.1065 90.8196 103.507C90.9018 104.214 90.688 104.888 90.2277 105.414Z" fill="#F6F6FE"/>
</g>
<defs>
<clipPath id="clip0_2456_19112">
<rect width="100" height="100" rx="50" fill="white"/>
</clipPath>
</defs>
</svg>
