<svg width="263" height="153" viewBox="0 0 263 153" fill="none" xmlns="http://www.w3.org/2000/svg">
<path d="M218.811 64.6499C211.539 -11.9348 94.4442 -14.7457 84.7703 56.0538C84.5453 57.7003 82.5104 58.5489 81.1745 57.5605C56.4126 39.2393 27.2832 61.7784 29.9855 81" stroke="white" stroke-width="10"/>
<path d="M36.9105 91.6V105.5C36.9105 111.833 38.4772 116.267 41.6105 118.8C44.8105 121.4 50.2772 122.7 58.0105 122.7C64.7439 122.7 69.6105 121.833 72.6106 120.1C76.2772 118.033 78.3772 114.333 78.9105 109H72.7105L67.5105 102.6V98.8H95.1106V109H91.3105C90.7772 117.333 87.4439 123.6 81.3106 127.8C76.5106 131.2 70.4105 132.9 63.0105 132.9H53.1105C44.7105 132.9 38.0105 130.733 33.0105 126.4C27.4772 121.867 24.7105 115.267 24.7105 106.6V96.5L30.9105 91.6H36.9105ZM50.1105 138.7C51.9105 138.7 53.4439 139.333 54.7105 140.6C55.9772 141.867 56.6105 143.4 56.6105 145.2C56.6105 147 55.9772 148.533 54.7105 149.8C53.4439 151.067 51.9105 151.7 50.1105 151.7C48.3105 151.7 46.7772 151.067 45.5105 149.8C44.2439 148.533 43.6105 147 43.6105 145.2C43.6105 143.4 44.2439 141.867 45.5105 140.6C46.7772 139.333 48.3105 138.7 50.1105 138.7ZM65.3105 138.7C67.1105 138.7 68.6439 139.333 69.9105 140.6C71.1772 141.867 71.8105 143.4 71.8105 145.2C71.8105 147 71.1772 148.533 69.9105 149.8C68.6439 151.067 67.1105 151.7 65.3105 151.7C63.5772 151.7 62.0772 151.067 60.8105 149.8C59.5439 148.533 58.9105 147 58.9105 145.2C58.9105 143.4 59.5439 141.867 60.8105 140.6C62.0772 139.333 63.5772 138.7 65.3105 138.7ZM104.256 98.8C102.656 94.9333 101.856 90.6 101.856 85.8C101.856 77.9333 104.289 71.8333 109.156 67.5C113.223 63.8333 118.423 61.9667 124.756 61.9C130.423 61.9 135.056 63.2333 138.656 65.9C143.056 69.2333 145.256 74.0333 145.256 80.3V96.3C145.256 96.9 145.423 97.4667 145.756 98C146.289 98.5333 146.889 98.8 147.556 98.8H148.456V109H144.056C141.056 109 138.489 107.933 136.356 105.8C133.089 109.933 128.756 112 123.356 112C117.556 112 112.623 109.867 108.556 105.6H108.356L105.556 109H86.4559V98.8H104.256ZM133.056 80.3C133.056 77.8333 132.289 75.8333 130.756 74.3C129.356 72.7667 127.356 72 124.756 72C121.489 72 118.856 73.2667 116.856 75.8C114.923 78.3333 113.956 81.7333 113.956 86C113.956 90.6667 114.956 94.4667 116.956 97.4C118.956 100.333 121.523 101.8 124.656 101.8C127.523 101.8 130.323 100.433 133.056 97.7V80.3ZM177.884 37.4V97.3V98.8H182.984V109H179.584L175.784 104.9H175.584C173.317 107.633 170.484 109 167.084 109H147.784V98.8H163.184C163.984 98.8 164.651 98.5333 165.184 98C165.584 97.3333 165.784 96.7667 165.784 96.3V37.4H177.884ZM200.757 98.8V109H182.257V98.8H200.757ZM213.33 64.7C219.93 62.7667 225.697 61.8 230.63 61.8C238.697 61.8 245.197 64.3333 250.13 69.4C254.597 74 256.83 79.7333 256.83 86.6V98C256.83 100.733 255.897 103.2 254.03 105.4C251.83 107.8 249.163 109 246.03 109H200.03V98.8H242.13C243.797 98.8 244.63 97.9667 244.63 96.3V87.3C244.63 82.6333 243.097 78.9667 240.03 76.3C237.03 73.6333 232.863 72.3 227.53 72.3C224.463 72.3 219.73 73 213.33 74.4V64.7Z" fill="#9E82D9"/>
<path d="M122.291 141.7C122.831 141.7 123.281 141.52 123.641 141.16C124.021 140.78 124.221 140.33 124.241 139.81V132.25H116.201V139.9C116.201 141.88 115.721 143.64 114.761 145.18C113.761 146.8 112.171 147.73 109.991 147.97C109.771 148.01 109.531 148.03 109.271 148.03C108.331 148.03 107.281 147.84 106.121 147.46V147.16C107.721 146.54 108.781 145.68 109.301 144.58C109.661 143.84 109.871 143.17 109.931 142.57C110.011 141.79 110.051 140.9 110.051 139.9V123.16C110.031 122.64 109.831 122.2 109.451 121.84C109.091 121.48 108.651 121.3 108.131 121.3H107.741V121H118.511V121.3H118.121C117.401 121.3 116.861 121.6 116.501 122.2C116.321 122.48 116.221 122.79 116.201 123.13V130.75H124.241V123.7C124.241 122.56 124.481 121.46 124.961 120.4C125.441 119.34 126.121 118.43 127.001 117.67C128.381 116.45 130.021 115.84 131.921 115.84C132.661 115.84 133.441 115.94 134.261 116.14V116.44C133.301 116.74 132.481 117.23 131.801 117.91C131.381 118.31 131.011 119.03 130.691 120.07C130.531 120.59 130.441 121.19 130.421 121.87C130.401 122.53 130.391 123.14 130.391 123.7V139.81C130.391 140.51 130.701 141.05 131.321 141.43C131.621 141.61 131.951 141.7 132.311 141.7H132.671V142H121.931V141.7H122.291ZM140.278 141.7C140.798 141.7 141.238 141.52 141.598 141.16C141.978 140.78 142.178 140.33 142.198 139.81V123.19C142.178 122.55 141.908 122.04 141.388 121.66C141.068 121.42 140.698 121.3 140.278 121.3H139.888V121H153.178C154.038 121 154.798 120.93 155.458 120.79C156.138 120.65 156.568 120.54 156.748 120.46V126.64H156.448V126.4C156.448 124.8 155.868 123.68 154.708 123.04C154.148 122.72 153.478 122.55 152.698 122.53H148.348V130.9H151.618C152.578 130.88 153.358 130.57 153.958 129.97C154.558 129.35 154.858 128.56 154.858 127.6V127.48H155.158V135.82H154.858V135.67C154.858 134.73 154.558 133.96 153.958 133.36C153.358 132.74 152.588 132.42 151.648 132.4H148.348V140.47H152.038C153.498 140.47 154.788 139.99 155.908 139.03C157.028 138.07 157.818 136.74 158.278 135.04H158.578L157.438 142H139.888V141.7H140.278ZM165.658 141.7C166.178 141.7 166.618 141.52 166.978 141.16C167.358 140.78 167.558 140.33 167.578 139.81V123.19C167.558 122.45 167.238 121.9 166.618 121.54C166.318 121.38 165.998 121.3 165.658 121.3H165.268V121H176.038V121.3H175.648C175.128 121.3 174.678 121.49 174.298 121.87C173.918 122.23 173.728 122.67 173.728 123.19V140.47H177.418C178.878 140.47 180.168 139.99 181.288 139.03C182.408 138.07 183.198 136.74 183.658 135.04H183.958L182.818 142H165.268V141.7H165.658ZM218.709 141.7H219.189V142H208.539V141.73H209.019C209.339 141.73 209.619 141.6 209.859 141.34C210.119 141.06 210.229 140.76 210.189 140.44L209.049 131.68L203.949 139.24C203.609 139.72 203.309 140.3 203.049 140.98C202.789 141.66 202.669 142.24 202.689 142.72H202.419L194.619 131.95L193.569 140.44C193.529 140.76 193.629 141.06 193.869 141.34C194.129 141.6 194.419 141.73 194.739 141.73H195.219V142H188.619V141.7H189.099C189.659 141.7 190.139 141.53 190.539 141.19C190.959 140.85 191.209 140.39 191.289 139.81L193.929 120.58H194.199L204.279 134.35L213.519 120.58H213.789L216.519 139.81C216.619 140.39 216.869 140.85 217.269 141.19C217.669 141.53 218.149 141.7 218.709 141.7ZM246.144 121.3H245.724C245.124 121.3 244.544 121.47 243.984 121.81C243.444 122.15 243.014 122.57 242.694 123.07L236.814 132.34V139.81C236.814 140.33 236.994 140.78 237.354 141.16C237.734 141.52 238.194 141.7 238.734 141.7H239.094V142H228.354V141.7H228.744C229.264 141.7 229.704 141.52 230.064 141.16C230.444 140.8 230.644 140.36 230.664 139.84V132.34L224.934 123.01C224.434 122.23 223.744 121.71 222.864 121.45C222.564 121.35 222.264 121.3 221.964 121.3H221.544V121H233.124V121.3H232.764C232.324 121.3 231.984 121.5 231.744 121.9C231.604 122.12 231.534 122.34 231.534 122.56C231.534 122.76 231.594 122.96 231.714 123.16L235.824 130.57L240.084 123.16C240.204 122.96 240.264 122.76 240.264 122.56C240.264 122.36 240.194 122.15 240.054 121.93C239.794 121.51 239.454 121.3 239.034 121.3H238.674V121H246.144V121.3Z" fill="#FFDE59"/>
<path d="M136.061 35.9375C136.811 32 137.842 30.9687 141.779 30.2187C142.248 30.125 142.529 29.75 142.529 29.2812C142.529 28.8125 142.248 28.4375 141.779 28.3437C137.842 27.5937 136.811 26.5625 136.061 22.625C135.967 22.1562 135.592 21.875 135.123 21.875C134.654 21.875 134.279 22.1562 134.186 22.625C133.436 26.5625 132.404 27.5937 128.467 28.3437C128.092 28.4375 127.717 28.8125 127.717 29.2812C127.717 29.75 127.998 30.125 128.467 30.2187C132.404 30.9687 133.436 32 134.186 35.9375C134.279 36.4062 134.654 36.6875 135.123 36.6875C135.592 36.6875 135.967 36.3125 136.061 35.9375Z" fill="#FFDE59"/>
<path d="M145.436 42.5C142.811 41.9375 142.248 41.375 141.686 38.75C141.592 38.2812 141.217 38 140.748 38C140.279 38 139.904 38.2812 139.811 38.75C139.248 41.375 138.686 41.9375 136.061 42.5C135.592 42.5937 135.311 42.9687 135.311 43.4375C135.311 43.9062 135.592 44.2812 136.061 44.375C138.686 44.9375 139.248 45.5 139.811 48.125C139.904 48.5937 140.279 48.875 140.748 48.875C141.217 48.875 141.592 48.5937 141.686 48.125C142.248 45.5 142.811 44.9375 145.436 44.375C145.904 44.2812 146.186 43.9062 146.186 43.4375C146.186 42.9687 145.811 42.5937 145.436 42.5Z" fill="#FFDE59"/>
<path d="M152.186 33.125C150.123 32.75 149.654 32.2812 149.279 30.2187C149.186 29.75 148.811 29.4688 148.342 29.4688C147.873 29.4688 147.498 29.75 147.404 30.2187C147.029 32.2812 146.561 32.75 144.498 33.125C144.029 33.2187 143.748 33.5937 143.748 34.0625C143.748 34.5312 144.029 34.9062 144.498 35C146.561 35.375 147.029 35.8438 147.404 37.9062C147.498 38.375 147.873 38.6562 148.342 38.6562C148.811 38.6562 149.186 38.375 149.279 37.9062C149.654 35.8438 150.123 35.375 152.186 35C152.654 34.9062 152.936 34.5312 152.936 34.0625C152.936 33.5937 152.654 33.2187 152.186 33.125Z" fill="#FFDE59"/>
<path d="M130.154 40.9063C129.873 40.625 129.498 40.5313 129.123 40.7188C129.029 40.7188 128.936 40.8125 128.842 40.9063C128.748 41 128.654 41.0938 128.654 41.1875C128.561 41.2813 128.561 41.4688 128.561 41.5625C128.561 41.6563 128.561 41.8438 128.654 41.9375C128.748 42.0313 128.748 42.125 128.842 42.2188C128.936 42.3125 129.029 42.4063 129.123 42.4063C129.217 42.5 129.404 42.5 129.498 42.5C129.592 42.5 129.779 42.5 129.873 42.4063C129.967 42.3125 130.061 42.3125 130.154 42.2188C130.248 42.125 130.342 42.0313 130.342 41.9375C130.436 41.8438 130.436 41.6563 130.436 41.5625C130.436 41.4688 130.436 41.2813 130.342 41.1875C130.342 41.0938 130.248 41 130.154 40.9063Z" fill="#FFDE59"/>
<path d="M151.061 26.5625C151.342 26.5625 151.529 26.4688 151.717 26.2812C151.904 26.0938 151.998 25.9063 151.998 25.625C151.998 25.3438 151.904 25.1563 151.717 24.9688C151.623 24.875 151.529 24.7813 151.436 24.7813C151.248 24.6875 150.967 24.6875 150.686 24.7813C150.592 24.7813 150.498 24.875 150.404 24.9688C150.217 25.1563 150.123 25.3438 150.123 25.625C150.123 25.9063 150.217 26.0938 150.404 26.2812C150.592 26.4688 150.779 26.5625 151.061 26.5625Z" fill="#FFDE59"/>
<path d="M24.715 83.0647C24.6435 80.7735 24.5501 78.9764 24.4348 77.6737C24.1119 74.0261 23.2749 71.2446 21.9237 69.3291C20.6319 67.3428 17.8763 64.7639 13.6568 61.5925C7.44453 57.4158 4.09627 52.5917 3.61197 47.1203C3.1738 42.1699 4.84998 38.1156 8.6405 34.9573C11.6361 32.4602 15.3486 31.0156 19.7779 30.6235C23.8814 30.2603 27.4193 31.2929 30.3914 33.7213C33.4228 36.0789 35.6021 39.5622 36.9291 44.1713L28.99 47.9265C27.6169 42.7964 25.1065 40.3927 21.4589 40.7156C19.6351 40.877 18.1179 41.5365 16.9075 42.694C15.7564 43.7805 15.2413 45.0078 15.3624 46.3756C15.5757 48.7857 17.7682 51.677 21.9399 55.0496C25.8222 58.1196 28.5683 60.9619 30.1783 63.5765C31.8535 66.1854 33.5391 69.2164 33.8678 72.9292C34.8883 75.3552 34.9461 80.4704 34.8177 82.4279L28.7209 82.7102L24.715 83.0647ZM30.0214 88.5032C31.7801 88.3476 33.333 88.8338 34.6801 89.9618C36.0215 91.0247 36.77 92.4355 36.9257 94.1942C37.0813 95.9529 36.5951 97.5058 35.4671 98.8529C34.3391 100.2 32.8957 100.951 31.137 101.107C29.3783 101.263 27.8254 100.777 26.4783 99.6485C25.1963 98.5147 24.4775 97.0685 24.3218 95.3098C24.1662 93.5511 24.6227 92.0337 25.6913 90.7574C26.8194 89.4103 28.2627 88.6589 30.0214 88.5032Z" fill="#FFDE59"/>
<path d="M29.8109 62.5C34.3109 68.5 34.7855 76.9212 34.8176 82.4279" stroke="#211638" stroke-width="0.8"/>
<path d="M26.9545 100.147L26.9544 100.147L26.9631 100.154C28.3917 101.199 29.996 101.588 31.7521 101.316C33.5081 101.044 34.9195 100.187 35.9647 98.7583C37.0098 97.3293 37.3986 95.7247 37.1264 93.9682C36.8545 92.2131 36.0034 90.8289 34.5795 89.8431C33.152 88.8 31.5492 88.4122 29.7949 88.6841C28.0389 88.9564 26.6275 89.8127 25.5824 91.2417C24.5851 92.6051 24.227 94.1758 24.4981 95.9258C24.7692 97.6756 25.5894 99.0904 26.9545 100.147Z" fill="#FFDE59" stroke="#191919" stroke-width="0.8"/>
</svg>
