<svg width="390" height="255" viewBox="0 0 390 255" fill="none" xmlns="http://www.w3.org/2000/svg">
<path d="M-3.55972 75.0331C-8.1218 86.2969 -10.5246 98.3457 -10.6384 110.529C-10.6384 135.195 -1.01538 158.851 16.1136 176.292C33.2426 193.734 56.4744 203.532 80.6985 203.532H85.5697C89.4835 218.201 97.9959 231.166 109.812 240.456C121.628 249.745 136.1 254.85 151.028 254.994C161.157 255.134 171.182 252.9 180.329 248.465C189.475 244.03 197.497 237.513 203.775 229.418C212.511 231.26 221.417 232.144 230.339 232.053C234.296 232.053 238.331 232.053 242.212 231.511C272.233 228.804 300.249 215.023 320.99 192.759L321.904 191.829C323.654 189.892 325.329 187.877 327.003 185.784L329.82 182.296C330.809 180.979 331.722 179.661 332.636 178.266C333.549 176.871 335.528 174.004 336.898 171.834L337.888 170.051C345.73 156.716 351.025 141.989 353.491 126.65C353.491 126.65 353.491 126.107 353.491 125.875C353.491 124.092 354.1 122.31 354.328 120.527C371.999 118.313 388.185 109.349 399.615 95.448C411.044 81.5471 416.863 63.7462 415.896 45.6438C414.93 27.5414 407.249 10.488 394.407 -2.06897C381.565 -14.6259 364.52 -21.7496 346.717 -22H26.4292C15.4323 -21.7044 4.80042 -17.9203 -3.98267 -11.1757C-12.7657 -4.43115 -19.2617 4.9373 -22.5639 15.6221C-25.8661 26.3069 -25.8099 37.7749 -22.403 48.4256C-18.9961 59.0763 -12.4085 68.3782 -3.55972 75.0331Z" fill="url(#paint0_linear_180_6)"/>
<path d="M268.811 100.65C261.539 24.0652 144.444 21.2543 134.77 92.0538C134.545 93.7003 132.51 94.5489 131.175 93.5605C106.413 75.2393 77.2832 97.7784 79.9855 117" stroke="white" stroke-width="10"/>
<path d="M86.9105 127.6V141.5C86.9105 147.833 88.4772 152.267 91.6105 154.8C94.8105 157.4 100.277 158.7 108.011 158.7C114.744 158.7 119.611 157.833 122.611 156.1C126.277 154.033 128.377 150.333 128.911 145H122.711L117.511 138.6V134.8H145.111V145H141.311C140.777 153.333 137.444 159.6 131.311 163.8C126.511 167.2 120.411 168.9 113.011 168.9H103.111C94.7105 168.9 88.0105 166.733 83.0105 162.4C77.4772 157.867 74.7105 151.267 74.7105 142.6V132.5L80.9105 127.6H86.9105ZM100.111 174.7C101.911 174.7 103.444 175.333 104.711 176.6C105.977 177.867 106.611 179.4 106.611 181.2C106.611 183 105.977 184.533 104.711 185.8C103.444 187.067 101.911 187.7 100.111 187.7C98.3105 187.7 96.7772 187.067 95.5105 185.8C94.2439 184.533 93.6105 183 93.6105 181.2C93.6105 179.4 94.2439 177.867 95.5105 176.6C96.7772 175.333 98.3105 174.7 100.111 174.7ZM115.311 174.7C117.111 174.7 118.644 175.333 119.911 176.6C121.177 177.867 121.811 179.4 121.811 181.2C121.811 183 121.177 184.533 119.911 185.8C118.644 187.067 117.111 187.7 115.311 187.7C113.577 187.7 112.077 187.067 110.811 185.8C109.544 184.533 108.911 183 108.911 181.2C108.911 179.4 109.544 177.867 110.811 176.6C112.077 175.333 113.577 174.7 115.311 174.7ZM154.256 134.8C152.656 130.933 151.856 126.6 151.856 121.8C151.856 113.933 154.289 107.833 159.156 103.5C163.223 99.8333 168.423 97.9667 174.756 97.9C180.423 97.9 185.056 99.2333 188.656 101.9C193.056 105.233 195.256 110.033 195.256 116.3V132.3C195.256 132.9 195.423 133.467 195.756 134C196.289 134.533 196.889 134.8 197.556 134.8H198.456V145H194.056C191.056 145 188.489 143.933 186.356 141.8C183.089 145.933 178.756 148 173.356 148C167.556 148 162.623 145.867 158.556 141.6H158.356L155.556 145H136.456V134.8H154.256ZM183.056 116.3C183.056 113.833 182.289 111.833 180.756 110.3C179.356 108.767 177.356 108 174.756 108C171.489 108 168.856 109.267 166.856 111.8C164.923 114.333 163.956 117.733 163.956 122C163.956 126.667 164.956 130.467 166.956 133.4C168.956 136.333 171.523 137.8 174.656 137.8C177.523 137.8 180.323 136.433 183.056 133.7V116.3ZM227.884 73.4V133.3V134.8H232.984V145H229.584L225.784 140.9H225.584C223.317 143.633 220.484 145 217.084 145H197.784V134.8H213.184C213.984 134.8 214.651 134.533 215.184 134C215.584 133.333 215.784 132.767 215.784 132.3V73.4H227.884ZM250.757 134.8V145H232.257V134.8H250.757ZM263.33 100.7C269.93 98.7667 275.697 97.8 280.63 97.8C288.697 97.8 295.197 100.333 300.13 105.4C304.597 110 306.83 115.733 306.83 122.6V134C306.83 136.733 305.897 139.2 304.03 141.4C301.83 143.8 299.163 145 296.03 145H250.03V134.8H292.13C293.797 134.8 294.63 133.967 294.63 132.3V123.3C294.63 118.633 293.097 114.967 290.03 112.3C287.03 109.633 282.863 108.3 277.53 108.3C274.463 108.3 269.73 109 263.33 110.4V100.7Z" fill="#9E82D9"/>
<path d="M172.291 177.7C172.831 177.7 173.281 177.52 173.641 177.16C174.021 176.78 174.221 176.33 174.241 175.81V168.25H166.201V175.9C166.201 177.88 165.721 179.64 164.761 181.18C163.761 182.8 162.171 183.73 159.991 183.97C159.771 184.01 159.531 184.03 159.271 184.03C158.331 184.03 157.281 183.84 156.121 183.46V183.16C157.721 182.54 158.781 181.68 159.301 180.58C159.661 179.84 159.871 179.17 159.931 178.57C160.011 177.79 160.051 176.9 160.051 175.9V159.16C160.031 158.64 159.831 158.2 159.451 157.84C159.091 157.48 158.651 157.3 158.131 157.3H157.741V157H168.511V157.3H168.121C167.401 157.3 166.861 157.6 166.501 158.2C166.321 158.48 166.221 158.79 166.201 159.13V166.75H174.241V159.7C174.241 158.56 174.481 157.46 174.961 156.4C175.441 155.34 176.121 154.43 177.001 153.67C178.381 152.45 180.021 151.84 181.921 151.84C182.661 151.84 183.441 151.94 184.261 152.14V152.44C183.301 152.74 182.481 153.23 181.801 153.91C181.381 154.31 181.011 155.03 180.691 156.07C180.531 156.59 180.441 157.19 180.421 157.87C180.401 158.53 180.391 159.14 180.391 159.7V175.81C180.391 176.51 180.701 177.05 181.321 177.43C181.621 177.61 181.951 177.7 182.311 177.7H182.671V178H171.931V177.7H172.291ZM190.278 177.7C190.798 177.7 191.238 177.52 191.598 177.16C191.978 176.78 192.178 176.33 192.198 175.81V159.19C192.178 158.55 191.908 158.04 191.388 157.66C191.068 157.42 190.698 157.3 190.278 157.3H189.888V157H203.178C204.038 157 204.798 156.93 205.458 156.79C206.138 156.65 206.568 156.54 206.748 156.46V162.64H206.448V162.4C206.448 160.8 205.868 159.68 204.708 159.04C204.148 158.72 203.478 158.55 202.698 158.53H198.348V166.9H201.618C202.578 166.88 203.358 166.57 203.958 165.97C204.558 165.35 204.858 164.56 204.858 163.6V163.48H205.158V171.82H204.858V171.67C204.858 170.73 204.558 169.96 203.958 169.36C203.358 168.74 202.588 168.42 201.648 168.4H198.348V176.47H202.038C203.498 176.47 204.788 175.99 205.908 175.03C207.028 174.07 207.818 172.74 208.278 171.04H208.578L207.438 178H189.888V177.7H190.278ZM215.658 177.7C216.178 177.7 216.618 177.52 216.978 177.16C217.358 176.78 217.558 176.33 217.578 175.81V159.19C217.558 158.45 217.238 157.9 216.618 157.54C216.318 157.38 215.998 157.3 215.658 157.3H215.268V157H226.038V157.3H225.648C225.128 157.3 224.678 157.49 224.298 157.87C223.918 158.23 223.728 158.67 223.728 159.19V176.47H227.418C228.878 176.47 230.168 175.99 231.288 175.03C232.408 174.07 233.198 172.74 233.658 171.04H233.958L232.818 178H215.268V177.7H215.658ZM268.709 177.7H269.189V178H258.539V177.73H259.019C259.339 177.73 259.619 177.6 259.859 177.34C260.119 177.06 260.229 176.76 260.189 176.44L259.049 167.68L253.949 175.24C253.609 175.72 253.309 176.3 253.049 176.98C252.789 177.66 252.669 178.24 252.689 178.72H252.419L244.619 167.95L243.569 176.44C243.529 176.76 243.629 177.06 243.869 177.34C244.129 177.6 244.419 177.73 244.739 177.73H245.219V178H238.619V177.7H239.099C239.659 177.7 240.139 177.53 240.539 177.19C240.959 176.85 241.209 176.39 241.289 175.81L243.929 156.58H244.199L254.279 170.35L263.519 156.58H263.789L266.519 175.81C266.619 176.39 266.869 176.85 267.269 177.19C267.669 177.53 268.149 177.7 268.709 177.7ZM296.144 157.3H295.724C295.124 157.3 294.544 157.47 293.984 157.81C293.444 158.15 293.014 158.57 292.694 159.07L286.814 168.34V175.81C286.814 176.33 286.994 176.78 287.354 177.16C287.734 177.52 288.194 177.7 288.734 177.7H289.094V178H278.354V177.7H278.744C279.264 177.7 279.704 177.52 280.064 177.16C280.444 176.8 280.644 176.36 280.664 175.84V168.34L274.934 159.01C274.434 158.23 273.744 157.71 272.864 157.45C272.564 157.35 272.264 157.3 271.964 157.3H271.544V157H283.124V157.3H282.764C282.324 157.3 281.984 157.5 281.744 157.9C281.604 158.12 281.534 158.34 281.534 158.56C281.534 158.76 281.594 158.96 281.714 159.16L285.824 166.57L290.084 159.16C290.204 158.96 290.264 158.76 290.264 158.56C290.264 158.36 290.194 158.15 290.054 157.93C289.794 157.51 289.454 157.3 289.034 157.3H288.674V157H296.144V157.3Z" fill="#FFDE59"/>
<path d="M186.061 71.9375C186.811 68 187.842 66.9687 191.779 66.2187C192.248 66.125 192.529 65.75 192.529 65.2812C192.529 64.8125 192.248 64.4375 191.779 64.3437C187.842 63.5937 186.811 62.5625 186.061 58.625C185.967 58.1562 185.592 57.875 185.123 57.875C184.654 57.875 184.279 58.1562 184.186 58.625C183.436 62.5625 182.404 63.5937 178.467 64.3437C178.092 64.4375 177.717 64.8125 177.717 65.2812C177.717 65.75 177.998 66.125 178.467 66.2187C182.404 66.9687 183.436 68 184.186 71.9375C184.279 72.4062 184.654 72.6875 185.123 72.6875C185.592 72.6875 185.967 72.3125 186.061 71.9375Z" fill="#FFDE59"/>
<path d="M195.436 78.5C192.811 77.9375 192.248 77.375 191.686 74.75C191.592 74.2812 191.217 74 190.748 74C190.279 74 189.904 74.2812 189.811 74.75C189.248 77.375 188.686 77.9375 186.061 78.5C185.592 78.5937 185.311 78.9687 185.311 79.4375C185.311 79.9062 185.592 80.2812 186.061 80.375C188.686 80.9375 189.248 81.5 189.811 84.125C189.904 84.5937 190.279 84.875 190.748 84.875C191.217 84.875 191.592 84.5937 191.686 84.125C192.248 81.5 192.811 80.9375 195.436 80.375C195.904 80.2812 196.186 79.9062 196.186 79.4375C196.186 78.9687 195.811 78.5937 195.436 78.5Z" fill="#FFDE59"/>
<path d="M202.186 69.125C200.123 68.75 199.654 68.2812 199.279 66.2187C199.186 65.75 198.811 65.4688 198.342 65.4688C197.873 65.4688 197.498 65.75 197.404 66.2187C197.029 68.2812 196.561 68.75 194.498 69.125C194.029 69.2187 193.748 69.5937 193.748 70.0625C193.748 70.5312 194.029 70.9062 194.498 71C196.561 71.375 197.029 71.8438 197.404 73.9062C197.498 74.375 197.873 74.6562 198.342 74.6562C198.811 74.6562 199.186 74.375 199.279 73.9062C199.654 71.8438 200.123 71.375 202.186 71C202.654 70.9062 202.936 70.5312 202.936 70.0625C202.936 69.5937 202.654 69.2187 202.186 69.125Z" fill="#FFDE59"/>
<path d="M180.154 76.9063C179.873 76.625 179.498 76.5313 179.123 76.7188C179.029 76.7188 178.936 76.8125 178.842 76.9063C178.748 77 178.654 77.0938 178.654 77.1875C178.561 77.2813 178.561 77.4688 178.561 77.5625C178.561 77.6563 178.561 77.8438 178.654 77.9375C178.748 78.0313 178.748 78.125 178.842 78.2188C178.936 78.3125 179.029 78.4063 179.123 78.4063C179.217 78.5 179.404 78.5 179.498 78.5C179.592 78.5 179.779 78.5 179.873 78.4063C179.967 78.3125 180.061 78.3125 180.154 78.2188C180.248 78.125 180.342 78.0313 180.342 77.9375C180.436 77.8438 180.436 77.6563 180.436 77.5625C180.436 77.4688 180.436 77.2813 180.342 77.1875C180.342 77.0938 180.248 77 180.154 76.9063Z" fill="#FFDE59"/>
<path d="M201.061 62.5625C201.342 62.5625 201.529 62.4688 201.717 62.2812C201.904 62.0938 201.998 61.9063 201.998 61.625C201.998 61.3438 201.904 61.1563 201.717 60.9688C201.623 60.875 201.529 60.7813 201.436 60.7813C201.248 60.6875 200.967 60.6875 200.686 60.7813C200.592 60.7813 200.498 60.875 200.404 60.9688C200.217 61.1563 200.123 61.3438 200.123 61.625C200.123 61.9063 200.217 62.0938 200.404 62.2812C200.592 62.4688 200.779 62.5625 201.061 62.5625Z" fill="#FFDE59"/>
<path d="M74.715 119.065C74.6435 116.773 74.5501 114.976 74.4348 113.674C74.1119 110.026 73.2749 107.245 71.9237 105.329C70.6319 103.343 67.8763 100.764 63.6568 97.5925C57.4445 93.4158 54.0963 88.5917 53.612 83.1203C53.1738 78.17 54.85 74.1156 58.6405 70.9573C61.6361 68.4602 65.3486 67.0156 69.7779 66.6235C73.8814 66.2603 77.4193 67.2929 80.3914 69.7214C83.4228 72.0789 85.6021 75.5622 86.9291 80.1713L78.99 83.9266C77.6169 78.7964 75.1065 76.3927 71.4589 76.7156C69.6351 76.877 68.1179 77.5365 66.9075 78.694C65.7564 79.7806 65.2413 81.0078 65.3624 82.3756C65.5757 84.7857 67.7682 87.677 71.9399 91.0496C75.8222 94.1196 78.5683 96.9619 80.1783 99.5765C81.8535 102.185 83.5391 105.216 83.8678 108.929C84.8883 111.355 84.9461 116.47 84.8177 118.428L78.7209 118.71L74.715 119.065ZM80.0214 124.503C81.7801 124.348 83.333 124.834 84.6801 125.962C86.0215 127.025 86.77 128.436 86.9257 130.194C87.0813 131.953 86.5951 133.506 85.4671 134.853C84.3391 136.2 82.8957 136.951 81.137 137.107C79.3783 137.263 77.8254 136.777 76.4783 135.649C75.1963 134.515 74.4775 133.068 74.3218 131.31C74.1662 129.551 74.6227 128.034 75.6913 126.757C76.8194 125.41 78.2627 124.659 80.0214 124.503Z" fill="#FFDE59"/>
<path d="M79.8109 98.5C84.3109 104.5 84.7855 112.921 84.8176 118.428" stroke="#211638" stroke-width="0.8"/>
<path d="M76.9545 136.147L76.9544 136.147L76.9631 136.154C78.3917 137.199 79.996 137.588 81.7521 137.316C83.5081 137.044 84.9195 136.187 85.9647 134.758C87.0098 133.329 87.3986 131.725 87.1264 129.968C86.8545 128.213 86.0034 126.829 84.5795 125.843C83.152 124.8 81.5492 124.412 79.7949 124.684C78.0389 124.956 76.6275 125.813 75.5824 127.242C74.5851 128.605 74.227 130.176 74.4981 131.926C74.7692 133.676 75.5894 135.09 76.9545 136.147Z" fill="#FFDE59" stroke="#191919" stroke-width="0.8"/>
<defs>
<linearGradient id="paint0_linear_180_6" x1="195.5" y1="-22" x2="195.5" y2="255" gradientUnits="userSpaceOnUse">
<stop stop-color="#191919"/>
<stop offset="1" stop-color="#36255D"/>
</linearGradient>
</defs>
</svg>
